<?xml version="1.0" standalone="no"?>
<!DOCTYPE svg PUBLIC "-//W3C//DTD SVG 20010904//EN"
 "http://www.w3.org/TR/2001/REC-SVG-20010904/DTD/svg10.dtd">
<svg version="1.0" xmlns="http://www.w3.org/2000/svg"
 width="1920.000000pt" height="1179.000000pt" viewBox="0 0 1920.000000 1179.000000"
 preserveAspectRatio="xMidYMid meet">
<metadata>
Created by potrace 1.16, written by Peter Selinger 2001-2019
</metadata>
<g transform="translate(0.000000,1179.000000) scale(0.100000,-0.100000)"
fill="#000000" stroke="none">
<path d="M6113 10314 c-10 -28 7 -261 27 -367 61 -315 181 -521 404 -692 l73
-55 6 -128 c4 -70 7 -166 7 -213 l0 -85 251 -178 c249 -176 252 -178 271 -159
19 20 18 21 -94 159 -62 76 -128 158 -147 182 l-34 44 26 61 c15 38 31 62 40
61 8 -1 59 -35 114 -77 l100 -76 54 55 54 54 27 -55 c16 -30 31 -55 34 -55 3
0 16 12 30 28 14 15 27 23 30 17 2 -5 17 -31 32 -57 l28 -48 172 185 172 184
-55 25 c-30 14 -55 28 -55 32 0 4 10 18 22 31 26 27 21 34 -44 58 -27 10 -48
20 -48 23 0 3 23 29 51 59 44 47 49 56 37 70 -7 9 -48 57 -91 107 l-77 90 62
33 c35 18 67 31 73 29 5 -2 93 -63 194 -135 177 -125 185 -129 199 -110 7 11
12 25 9 32 -3 7 -80 104 -172 217 -92 113 -176 216 -186 229 l-19 24 -205 -11
-206 -12 -112 113 c-147 148 -262 218 -447 270 -146 42 -261 57 -437 57 -141
0 -164 -2 -170 -16z m783 -449 c111 -84 91 -265 -35 -332 -140 -74 -314 45
-286 196 28 151 204 225 321 136z"/>
<path d="M6698 9850 c-54 -29 -81 -73 -86 -141 -5 -71 20 -120 79 -149 92 -48
192 -7 234 94 57 137 -93 266 -227 196z"/>
<path d="M11540 9893 c-294 -13 -527 -43 -767 -99 -702 -162 -1337 -514 -1853
-1025 -133 -132 -380 -420 -380 -444 0 -4 35 -55 78 -114 86 -117 159 -230
217 -336 22 -38 56 -90 76 -115 65 -78 92 -144 97 -237 4 -81 5 -83 37 -103
57 -35 103 -95 121 -157 16 -56 15 -82 -8 -172 -2 -8 12 -18 37 -25 103 -32
197 -112 237 -204 39 -87 37 -208 -7 -313 -5 -13 2 -18 31 -24 100 -18 222
-112 270 -208 39 -75 57 -162 50 -233 -9 -86 0 -92 107 -70 227 47 644 125
1073 201 142 26 260 48 262 50 2 2 -10 112 -27 245 -17 132 -31 254 -31 270 0
38 -52 136 -133 249 -81 113 -107 186 -107 305 0 140 46 265 134 362 l45 51
-34 47 c-19 27 -44 73 -57 103 -20 49 -25 54 -48 49 -102 -23 -145 -28 -215
-23 -167 12 -310 91 -399 221 -29 42 -56 108 -111 283 l-74 228 -42 7 c-53 9
-202 58 -196 65 3 2 27 8 54 12 l48 7 -80 18 c-101 23 -202 70 -282 130 -67
51 -116 103 -108 115 2 5 25 11 51 15 44 6 48 4 99 -42 96 -85 275 -162 379
-162 24 0 27 -3 16 -10 -8 -5 -32 -10 -52 -10 -62 0 -51 -16 25 -39 152 -45
230 -49 419 -25 144 19 165 26 239 87 l56 46 55 -62 c79 -91 98 -119 119 -179
9 -29 20 -52 23 -50 3 1 17 2 31 2 23 0 24 2 18 49 -13 114 60 191 181 191 78
0 146 -67 146 -143 0 -42 -12 -70 -44 -105 -19 -21 -21 -36 -21 -150 -1 -146
-17 -199 -86 -292 l-40 -52 28 -32 c15 -17 54 -59 86 -93 31 -34 57 -66 57
-71 0 -5 40 -9 93 -9 108 0 177 -18 263 -68 104 -61 155 -128 254 -330 202
-412 305 -758 367 -1230 21 -162 24 -620 4 -770 -25 -205 -83 -509 -100 -527
-3 -4 -172 5 -374 20 l-368 26 6 33 c35 187 52 503 36 663 -7 63 -13 116 -15
118 -2 1 -394 -11 -872 -28 -809 -28 -943 -30 -1936 -30 l-1068 0 0 213 c0
172 3 217 15 234 13 19 13 24 0 50 -22 42 -21 342 1 385 15 29 15 32 0 43 -14
11 -16 59 -16 454 l0 441 -85 0 -85 0 0 -431 0 -432 -52 7 c-127 16 -384 26
-513 20 -641 -27 -1234 -241 -1755 -632 -154 -116 -449 -411 -563 -563 -333
-446 -520 -911 -589 -1459 -17 -136 -17 -514 0 -655 105 -866 557 -1611 1287
-2120 l95 -66 0 -240 0 -240 125 2 125 1 0 168 0 168 122 -55 c152 -69 434
-163 592 -198 118 -26 279 -51 489 -75 106 -13 413 -9 448 5 10 4 19 23 23 47
11 66 55 146 112 203 53 54 155 117 207 129 24 6 26 9 16 27 -18 35 5 48 35
20 33 -31 62 -25 58 12 -4 33 22 38 38 7 6 -12 21 -20 36 -20 20 0 24 4 19 19
-8 28 13 36 37 14 17 -15 34 -17 107 -15 79 3 91 1 147 -27 113 -56 107 -59
135 64 13 59 29 109 35 112 10 4 200 -43 212 -53 2 -1 -8 -35 -22 -76 -29 -83
-31 -92 -16 -83 6 3 29 6 53 6 46 1 134 50 319 180 181 129 418 345 548 502
30 36 56 64 57 63 2 -2 3 -260 3 -574 l0 -572 118 0 117 0 -3 282 c-2 234 0
280 10 265 13 -17 16 -17 78 2 36 11 176 50 313 87 203 55 246 70 242 83 -2 9
-43 156 -89 326 -47 171 -110 398 -140 505 -30 107 -53 197 -51 199 2 2 54
-18 116 -44 310 -130 621 -216 954 -265 143 -20 380 -40 492 -40 l63 0 2 763
3 762 113 0 112 0 0 -759 0 -759 93 6 c200 13 474 63 712 128 795 217 1493
683 2019 1348 83 104 250 356 323 486 207 369 359 790 433 1205 46 252 54 365
55 685 0 323 -7 411 -56 695 -104 596 -372 1193 -760 1691 -77 100 -325 376
-359 401 -10 7 -65 56 -123 109 -549 502 -1305 845 -2077 943 -114 14 -484 39
-520 34 -8 -1 -44 -3 -80 -5z m-1180 -4418 l0 -135 -165 0 -165 0 0 -80 0 -80
-2490 0 -2490 0 0 80 0 80 -145 0 -145 0 0 135 0 135 2800 0 2800 0 0 -135z
m2590 -697 c-12 -216 -25 -425 -28 -465 -7 -69 -8 -71 -27 -57 -19 14 -20 26
-20 257 0 248 10 366 47 557 22 116 26 126 40 112 7 -7 3 -137 -12 -404z"/>
<path d="M4650 9189 c-184 -22 -343 -101 -498 -244 -399 -370 -567 -1087 -344
-1469 74 -127 206 -219 363 -253 140 -30 366 -19 553 27 218 54 482 172 651
291 195 138 338 314 402 494 26 74 28 91 27 220 -1 129 -3 147 -31 227 -95
273 -318 502 -615 630 -162 70 -344 97 -508 77z"/>
<path d="M14845 2998 c-227 -19 -542 -187 -764 -407 -118 -116 -187 -212 -228
-318 -22 -55 -27 -85 -27 -158 -1 -80 2 -97 30 -155 145 -305 667 -457 1039
-303 229 95 401 315 461 589 23 105 23 286 0 378 -38 159 -128 280 -248 336
-77 36 -157 48 -263 38z"/>
<path d="M10650 876 c0 -46 -3 -91 -6 -100 -6 -15 97 -16 1122 -16 l1129 0 -3
100 -3 100 -1120 0 -1119 0 0 -84z"/>
</g>
</svg>
